<svg width="1466" height="1433" viewBox="0 0 1466 1433" fill="none" xmlns="http://www.w3.org/2000/svg">
<path d="M721.377 1043.15L277.467 603.412C269.831 595.849 269.814 583.515 277.427 575.929L724.866 130.153" stroke="url(#paint0_linear_38_2)" stroke-width="4.17956"/>
<path d="M814.185 988.942L1197.09 597.383C1202.1 592.262 1201.99 584.047 1196.85 579.056L814.185 207.365" stroke="url(#paint1_linear_38_2)" stroke-width="4.17956"/>
<path d="M333.732 578.81C328.824 583.7 328.813 591.645 333.708 596.549L713.359 976.897C721.255 984.807 734.772 979.215 734.772 968.039L734.772 795.629C734.772 792.293 733.442 789.093 731.077 786.74L543.043 599.686C538.133 594.802 538.113 586.863 542.996 581.953L730.078 393.892C732.415 391.543 733.727 388.364 733.727 385.049L733.727 210.398C733.727 199.238 720.243 193.638 712.338 201.516L333.732 578.81Z" fill="url(#paint2_linear_38_2)"/>
<path d="M1137.44 578.954C1142.41 583.827 1142.46 591.816 1137.55 596.75L832.161 903.668C824.271 911.597 810.734 906.01 810.734 894.824L810.734 722.472C810.734 719.141 812.059 715.947 814.417 713.595L928.544 599.751C933.469 594.838 933.453 586.853 928.507 581.96L814.454 469.131C812.073 466.776 810.734 463.566 810.734 460.217L810.734 288.421C810.734 277.309 824.118 271.688 832.052 279.468L1137.44 578.954Z" fill="url(#paint3_linear_38_2)"/>
<path d="M270.324 1214.15V1090.91H305.182V1186.51H363.984V1214.15H270.324ZM434.827 1216.62C424.733 1216.62 414.992 1215.38 405.602 1212.92C396.33 1210.34 388.76 1207.05 382.892 1203.06L394.335 1177.36C399.851 1180.88 406.189 1183.81 413.349 1186.16C420.626 1188.39 427.844 1189.5 435.003 1189.5C439.815 1189.5 443.688 1189.09 446.623 1188.27C449.557 1187.33 451.669 1186.16 452.961 1184.75C454.369 1183.22 455.073 1181.46 455.073 1179.47C455.073 1176.65 453.782 1174.42 451.2 1172.78C448.618 1171.14 445.273 1169.79 441.165 1168.73C437.057 1167.67 432.48 1166.62 427.433 1165.56C422.503 1164.5 417.515 1163.15 412.468 1161.51C407.539 1159.87 403.02 1157.76 398.912 1155.17C394.804 1152.47 391.459 1149.01 388.877 1144.79C386.295 1140.44 385.004 1134.99 385.004 1128.41C385.004 1121.02 386.999 1114.33 390.99 1108.34C395.098 1102.36 401.201 1097.55 409.299 1093.91C417.398 1090.27 427.492 1088.45 439.581 1088.45C447.679 1088.45 455.601 1089.39 463.348 1091.27C471.211 1093.03 478.195 1095.67 484.298 1099.19L473.559 1125.07C467.69 1121.9 461.881 1119.55 456.129 1118.03C450.378 1116.38 444.803 1115.56 439.404 1115.56C434.592 1115.56 430.719 1116.09 427.785 1117.15C424.851 1118.08 422.738 1119.38 421.447 1121.02C420.156 1122.66 419.511 1124.54 419.511 1126.65C419.511 1129.35 420.743 1131.52 423.208 1133.17C425.79 1134.69 429.135 1135.98 433.243 1137.04C437.468 1137.98 442.045 1138.98 446.975 1140.03C452.022 1141.09 457.01 1142.44 461.939 1144.08C466.986 1145.61 471.563 1147.72 475.671 1150.42C479.779 1153 483.066 1156.46 485.53 1160.81C488.112 1165.03 489.403 1170.37 489.403 1176.83C489.403 1183.99 487.349 1190.62 483.242 1196.72C479.251 1202.71 473.207 1207.52 465.108 1211.16C457.127 1214.8 447.033 1216.62 434.827 1216.62ZM544.102 1214.15V1118.55H506.251V1090.91H616.636V1118.55H578.961V1214.15H544.102ZM643.707 1214.15V1090.91H700.044C711.311 1090.91 720.994 1092.73 729.092 1096.37C737.308 1100.01 743.646 1105.29 748.106 1112.22C752.566 1119.02 754.796 1127.12 754.796 1136.51C754.796 1145.78 752.566 1153.82 748.106 1160.63C743.646 1167.32 737.308 1172.49 729.092 1176.12C720.994 1179.64 711.311 1181.41 700.044 1181.41H663.073L678.565 1166.79V1214.15H643.707ZM719.938 1214.15L689.304 1169.26H726.452L757.261 1214.15H719.938ZM678.565 1170.49L663.073 1154.47H697.931C705.208 1154.47 710.607 1152.88 714.128 1149.72C717.766 1146.55 719.586 1142.15 719.586 1136.51C719.586 1130.76 717.766 1126.3 714.128 1123.13C710.607 1119.96 705.208 1118.38 697.931 1118.38H663.073L678.565 1102.36V1170.49ZM773.323 1214.15L827.723 1090.91H862.053L916.63 1214.15H880.363L837.758 1107.99H851.49L808.886 1214.15H773.323ZM803.076 1190.21L812.054 1164.5H872.265L881.243 1190.21H803.076ZM940.596 1214.15V1090.91H998.87C1012.48 1090.91 1024.46 1093.44 1034.78 1098.48C1045.11 1103.53 1053.15 1110.63 1058.9 1119.79C1064.77 1128.94 1067.71 1139.86 1067.71 1152.53C1067.71 1165.09 1064.77 1176.01 1058.9 1185.28C1053.15 1194.43 1045.11 1201.53 1034.78 1206.58C1024.46 1211.63 1012.48 1214.15 998.87 1214.15H940.596ZM975.455 1186.33H997.461C1004.5 1186.33 1010.61 1185.04 1015.77 1182.46C1021.05 1179.76 1025.16 1175.89 1028.09 1170.84C1031.03 1165.68 1032.5 1159.57 1032.5 1152.53C1032.5 1145.37 1031.03 1139.27 1028.09 1134.22C1025.16 1129.18 1021.05 1125.36 1015.77 1122.78C1010.61 1120.08 1004.5 1118.73 997.461 1118.73H975.455V1186.33ZM1132.17 1138.62H1189.39V1164.68H1132.17V1138.62ZM1134.64 1187.21H1199.07V1214.15H1100.13V1090.91H1196.78V1117.85H1134.64V1187.21Z" fill="url(#paint4_linear_38_2)"/>
<path d="M272.931 1290.04V1249.03H288.926C292.52 1249.03 295.586 1249.6 298.125 1250.73C300.663 1251.86 302.616 1253.5 303.983 1255.65C305.35 1257.8 306.034 1260.36 306.034 1263.33C306.034 1266.3 305.35 1268.85 303.983 1271C302.616 1273.11 300.663 1274.75 298.125 1275.92C295.586 1277.06 292.52 1277.62 288.926 1277.62H276.154L278.79 1274.87V1290.04H272.931ZM278.79 1275.45L276.154 1272.53H288.75C292.5 1272.53 295.332 1271.72 297.246 1270.12C299.199 1268.52 300.175 1266.26 300.175 1263.33C300.175 1260.4 299.199 1258.13 297.246 1256.53C295.332 1254.93 292.5 1254.13 288.75 1254.13H276.154L278.79 1251.2V1275.45ZM331.339 1290.04V1249.03H347.334C350.928 1249.03 353.994 1249.6 356.533 1250.73C359.071 1251.86 361.024 1253.5 362.391 1255.65C363.758 1257.8 364.442 1260.36 364.442 1263.33C364.442 1266.3 363.758 1268.85 362.391 1271C361.024 1273.11 359.071 1274.73 356.533 1275.86C353.994 1277 350.928 1277.56 347.334 1277.56H334.562L337.198 1274.87V1290.04H331.339ZM358.759 1290.04L348.33 1275.16H354.599L365.145 1290.04H358.759ZM337.198 1275.45L334.562 1272.58H347.158C350.908 1272.58 353.74 1271.78 355.654 1270.18C357.607 1268.54 358.583 1266.26 358.583 1263.33C358.583 1260.4 357.607 1258.13 355.654 1256.53C353.74 1254.93 350.908 1254.13 347.158 1254.13H334.562L337.198 1251.2V1275.45ZM395.937 1266.73H417.029V1271.71H395.937V1266.73ZM396.464 1284.95H420.369V1290.04H390.606V1249.03H419.548V1254.13H396.464V1284.95ZM446.553 1290.04V1249.03H463.837C468.212 1249.03 472.059 1249.89 475.379 1251.61C478.738 1253.33 481.335 1255.73 483.171 1258.82C485.046 1261.9 485.984 1265.48 485.984 1269.54C485.984 1273.6 485.046 1277.17 483.171 1280.26C481.335 1283.34 478.738 1285.75 475.379 1287.47C472.059 1289.18 468.212 1290.04 463.837 1290.04H446.553ZM452.412 1284.95H463.485C466.884 1284.95 469.813 1284.3 472.274 1283.01C474.774 1281.72 476.707 1279.93 478.074 1277.62C479.441 1275.28 480.125 1272.58 480.125 1269.54C480.125 1266.45 479.441 1263.76 478.074 1261.45C476.707 1259.15 474.774 1257.35 472.274 1256.06C469.813 1254.77 466.884 1254.13 463.485 1254.13H452.412V1284.95ZM511.655 1290.04V1249.03H517.514V1290.04H511.655ZM564.829 1290.51C561.704 1290.51 558.814 1290 556.158 1288.99C553.541 1287.93 551.256 1286.47 549.303 1284.59C547.389 1282.68 545.885 1280.45 544.792 1277.92C543.698 1275.38 543.151 1272.58 543.151 1269.54C543.151 1266.49 543.698 1263.7 544.792 1261.16C545.885 1258.62 547.408 1256.41 549.361 1254.54C551.314 1252.62 553.599 1251.16 556.216 1250.14C558.872 1249.09 561.763 1248.56 564.887 1248.56C568.051 1248.56 570.961 1249.11 573.617 1250.2C576.312 1251.26 578.597 1252.84 580.472 1254.95L576.664 1258.64C575.101 1257 573.344 1255.79 571.391 1255.01C569.438 1254.19 567.348 1253.78 565.122 1253.78C562.817 1253.78 560.669 1254.17 558.677 1254.95C556.724 1255.73 555.025 1256.82 553.58 1258.23C552.135 1259.64 551.002 1261.32 550.182 1263.27C549.401 1265.18 549.01 1267.27 549.01 1269.54C549.01 1271.8 549.401 1273.91 550.182 1275.86C551.002 1277.78 552.135 1279.44 553.58 1280.85C555.025 1282.25 556.724 1283.34 558.677 1284.13C560.669 1284.91 562.817 1285.3 565.122 1285.3C567.348 1285.3 569.438 1284.91 571.391 1284.13C573.344 1283.31 575.101 1282.06 576.664 1280.38L580.472 1284.07C578.597 1286.18 576.312 1287.78 573.617 1288.87C570.961 1289.97 568.032 1290.51 564.829 1290.51ZM613.214 1290.04V1254.13H599.153V1249.03H633.076V1254.13H619.014V1290.04H613.214ZM685.774 1276.39V1271.53H701.535V1276.39H685.774ZM768.289 1290.04V1254.13H754.228V1249.03H788.151V1254.13H774.089V1290.04H768.289ZM829.171 1290.51C826.047 1290.51 823.137 1289.98 820.442 1288.93C817.786 1287.88 815.481 1286.41 813.528 1284.54C811.575 1282.62 810.052 1280.4 808.958 1277.86C807.865 1275.32 807.318 1272.54 807.318 1269.54C807.318 1266.53 807.865 1263.76 808.958 1261.22C810.052 1258.68 811.575 1256.47 813.528 1254.6C815.481 1252.68 817.786 1251.2 820.442 1250.14C823.098 1249.09 826.008 1248.56 829.171 1248.56C832.296 1248.56 835.167 1249.09 837.784 1250.14C840.44 1251.16 842.744 1252.62 844.697 1254.54C846.689 1256.41 848.213 1258.62 849.267 1261.16C850.361 1263.7 850.908 1266.49 850.908 1269.54C850.908 1272.58 850.361 1275.38 849.267 1277.92C848.213 1280.45 846.689 1282.68 844.697 1284.59C842.744 1286.47 840.44 1287.93 837.784 1288.99C835.167 1290 832.296 1290.51 829.171 1290.51ZM829.171 1285.3C831.437 1285.3 833.526 1284.91 835.44 1284.13C837.393 1283.34 839.073 1282.25 840.479 1280.85C841.924 1279.4 843.037 1277.72 843.819 1275.81C844.639 1273.89 845.049 1271.8 845.049 1269.54C845.049 1267.27 844.639 1265.18 843.819 1263.27C843.037 1261.35 841.924 1259.69 840.479 1258.29C839.073 1256.84 837.393 1255.73 835.44 1254.95C833.526 1254.17 831.437 1253.78 829.171 1253.78C826.867 1253.78 824.738 1254.17 822.785 1254.95C820.871 1255.73 819.192 1256.84 817.747 1258.29C816.301 1259.69 815.169 1261.35 814.348 1263.27C813.567 1265.18 813.177 1267.27 813.177 1269.54C813.177 1271.8 813.567 1273.89 814.348 1275.81C815.169 1277.72 816.301 1279.4 817.747 1280.85C819.192 1282.25 820.871 1283.34 822.785 1284.13C824.738 1284.91 826.867 1285.3 829.171 1285.3ZM906.18 1276.39V1271.53H921.941V1276.39H906.18ZM985.883 1266.73H1006.97V1271.71H985.883V1266.73ZM986.41 1284.95H1010.31V1290.04H980.551V1249.03H1009.49V1254.13H986.41V1284.95ZM1030.29 1290.04L1048.86 1249.03H1054.66L1073.29 1290.04H1067.14L1050.56 1252.31H1052.9L1036.32 1290.04H1030.29ZM1038.2 1279.79L1039.78 1275.1H1062.86L1064.56 1279.79H1038.2ZM1096.11 1290.04V1249.03H1112.1C1115.7 1249.03 1118.76 1249.6 1121.3 1250.73C1123.84 1251.86 1125.79 1253.5 1127.16 1255.65C1128.53 1257.8 1129.21 1260.36 1129.21 1263.33C1129.21 1266.3 1128.53 1268.85 1127.16 1271C1125.79 1273.11 1123.84 1274.73 1121.3 1275.86C1118.76 1277 1115.7 1277.56 1112.1 1277.56H1099.33L1101.97 1274.87V1290.04H1096.11ZM1123.53 1290.04L1113.1 1275.16H1119.37L1129.91 1290.04H1123.53ZM1101.97 1275.45L1099.33 1272.58H1111.93C1115.68 1272.58 1118.51 1271.78 1120.42 1270.18C1122.38 1268.54 1123.35 1266.26 1123.35 1263.33C1123.35 1260.4 1122.38 1258.13 1120.42 1256.53C1118.51 1254.93 1115.68 1254.13 1111.93 1254.13H1099.33L1101.97 1251.2V1275.45ZM1155.37 1290.04V1249.03H1160.18L1187.31 1282.72H1184.79V1249.03H1190.64V1290.04H1185.84L1158.71 1256.35H1161.23V1290.04H1155.37Z" fill="url(#paint5_linear_38_2)"/>
<defs>
<linearGradient id="paint0_linear_38_2" x1="620.159" y1="36.0052" x2="415.682" y2="1109.66" gradientUnits="userSpaceOnUse">
<stop offset="0.0899432" stop-color="#00FFC4" stop-opacity="0"/>
<stop offset="0.342158" stop-color="#00FFC4"/>
<stop offset="0.596721" stop-color="#AB54A7"/>
<stop offset="0.747983" stop-color="#FF0099"/>
<stop offset="0.879457" stop-color="#FF0099" stop-opacity="0"/>
</linearGradient>
<linearGradient id="paint1_linear_38_2" x1="891.503" y1="111.235" x2="834.035" y2="1087.16" gradientUnits="userSpaceOnUse">
<stop offset="0.0765069" stop-color="#00FFC4" stop-opacity="0"/>
<stop offset="0.273933" stop-color="#17E8C0"/>
<stop offset="0.718919" stop-color="#FF0099"/>
<stop offset="0.895785" stop-color="#FF0099" stop-opacity="0"/>
</linearGradient>
<linearGradient id="paint2_linear_38_2" x1="457.951" y1="106.417" x2="455.624" y2="1034.86" gradientUnits="userSpaceOnUse">
<stop offset="1" stop-color="#00FFB6"/>
</linearGradient>
<linearGradient id="paint3_linear_38_2" x1="1013.35" y1="106.545" x2="1015.68" y2="1034.99" gradientUnits="userSpaceOnUse">
<stop offset="1" stop-color="#FF007A"/>
</linearGradient>
<linearGradient id="paint4_linear_38_2" x1="1286.08" y1="1043.15" x2="219.412" y2="1298.41" gradientUnits="userSpaceOnUse">
<stop stop-color="#00FFB6"/>
<stop offset="1" stop-color="#FF007C"/>
</linearGradient>
<linearGradient id="paint5_linear_38_2" x1="1274.28" y1="1233.04" x2="539.602" y2="1754.77" gradientUnits="userSpaceOnUse">
<stop stop-color="#00FFB6"/>
<stop offset="1" stop-color="#FF007C"/>
</linearGradient>
</defs>
</svg>
